<svg width="32" height="32" viewBox="0 0 32 32" fill="none" xmlns="http://www.w3.org/2000/svg">
<mask id="mask0_2616_1503" style="mask-type:alpha" maskUnits="userSpaceOnUse" x="0" y="0" width="32" height="32">
<path d="M32 16C32 24.8366 24.8366 32 16 32C7.16344 32 0 24.8366 0 16C0 7.16344 7.16344 0 16 0C24.8366 0 32 7.16344 32 16Z" fill="#D9D9D9"/>
</mask>
<g mask="url(#mask0_2616_1503)">
<path fill-rule="evenodd" clip-rule="evenodd" d="M43.9953 -5.95088C29.3143 -5.95088 17.4129 5.95049 17.4129 20.6316V46.3158H16.5146V20.6316C16.5146 5.45441 28.8182 -6.84912 43.9953 -6.84912C59.1725 -6.84912 71.476 5.45441 71.476 20.6316H70.5778C70.5778 5.95049 58.6764 -5.95088 43.9953 -5.95088Z" fill="#2173F2"/>
<path fill-rule="evenodd" clip-rule="evenodd" d="M43.9953 -4.09235C30.3407 -4.09235 19.2714 6.97691 19.2714 20.6315V41.7123H18.3732V20.6315C18.3732 6.48083 29.8446 -4.9906 43.9953 -4.9906C58.1461 -4.9906 69.6175 6.48083 69.6175 20.6315H68.7193C68.7193 6.97691 57.65 -4.09235 43.9953 -4.09235Z" fill="#2173F2"/>
<path fill-rule="evenodd" clip-rule="evenodd" d="M43.9954 -2.23383C31.3672 -2.23383 21.13 8.00333 21.13 20.6315V39.3263H20.2318V20.6315C20.2318 7.50725 30.8711 -3.13208 43.9954 -3.13208C57.1196 -3.13208 67.759 7.50725 67.759 20.6315H66.8607C66.8607 8.00333 56.6235 -2.23383 43.9954 -2.23383Z" fill="#2173F2"/>
<path fill-rule="evenodd" clip-rule="evenodd" d="M43.9954 -0.375192C32.3936 -0.375192 22.9885 9.02988 22.9885 20.6316V37.5579H22.0903V20.6316C22.0903 8.53379 31.8975 -1.27344 43.9954 -1.27344C56.0932 -1.27344 65.9004 8.53379 65.9004 20.6316H65.0022C65.0022 9.02988 55.5971 -0.375192 43.9954 -0.375192Z" fill="#2173F2"/>
<path fill-rule="evenodd" clip-rule="evenodd" d="M43.9954 1.48333C33.4201 1.48333 24.8471 10.0563 24.8471 20.6316V36.2386H23.9489V20.6316C23.9489 9.56021 32.924 0.585083 43.9954 0.585083C55.0667 0.585083 64.0419 9.56021 64.0419 20.6316H63.1436C63.1436 10.0563 54.5706 1.48333 43.9954 1.48333Z" fill="#2173F2"/>
<path fill-rule="evenodd" clip-rule="evenodd" d="M-12.0421 -5.95088C2.63898 -5.95088 14.5404 5.95049 14.5404 20.6316V46.3158H15.4386V20.6316C15.4386 5.45441 3.13507 -6.84912 -12.0421 -6.84912C-27.2193 -6.84912 -39.5228 5.45441 -39.5228 20.6316H-38.6246C-38.6246 5.95049 -26.7232 -5.95088 -12.0421 -5.95088Z" fill="#2173F2"/>
<path fill-rule="evenodd" clip-rule="evenodd" d="M-12.0421 -4.09235C1.61255 -4.09235 12.6818 6.97691 12.6818 20.6315V41.7123H13.5801V20.6315C13.5801 6.48083 2.10864 -4.9906 -12.0421 -4.9906C-26.1928 -4.9906 -37.6642 6.48083 -37.6642 20.6315H-36.766C-36.766 6.97691 -25.6967 -4.09235 -12.0421 -4.09235Z" fill="#2173F2"/>
<path fill-rule="evenodd" clip-rule="evenodd" d="M-12.0421 -2.23383C0.586112 -2.23383 10.8233 8.00333 10.8233 20.6315V39.3263H11.7215V20.6315C11.7215 7.50725 1.0822 -3.13208 -12.0421 -3.13208C-25.1664 -3.13208 -35.8057 7.50725 -35.8057 20.6315H-34.9074C-34.9074 8.00333 -24.6703 -2.23383 -12.0421 -2.23383Z" fill="#2173F2"/>
<path fill-rule="evenodd" clip-rule="evenodd" d="M-12.0421 -0.375192C-0.440336 -0.375192 8.96473 9.02988 8.96473 20.6316V37.5579H9.86298V20.6316C9.86298 8.53379 0.0557508 -1.27344 -12.0421 -1.27344C-24.1399 -1.27344 -33.9471 8.53379 -33.9471 20.6316H-33.0489C-33.0489 9.02988 -23.6438 -0.375192 -12.0421 -0.375192Z" fill="#2173F2"/>
<path fill-rule="evenodd" clip-rule="evenodd" d="M-12.0421 1.48333C-1.46679 1.48333 7.10618 10.0563 7.10618 20.6316V36.2386H8.00443V20.6316C8.00443 9.56021 -0.970699 0.585083 -12.0421 0.585083C-23.1134 0.585083 -32.0886 9.56021 -32.0886 20.6316H-31.1903C-31.1903 10.0563 -22.6174 1.48333 -12.0421 1.48333Z" fill="#2173F2"/>
</g>
</svg>
