<svg width="40" height="41" viewBox="0 0 40 41" fill="none" xmlns="http://www.w3.org/2000/svg">
<mask id="mask0_574_32786" style="mask-type:alpha" maskUnits="userSpaceOnUse" x="0" y="0" width="40" height="41">
<path d="M40 20.5C40 31.5457 31.0457 40.5 20 40.5C8.9543 40.5 0 31.5457 0 20.5C0 9.4543 8.9543 0.5 20 0.5C31.0457 0.5 40 9.4543 40 20.5Z" fill="#D9D9D9"/>
</mask>
<g mask="url(#mask0_574_32786)">
<path fill-rule="evenodd" clip-rule="evenodd" d="M54.9944 -6.93872C36.6431 -6.93872 21.7664 7.938 21.7664 26.2894V58.3946H20.6436V26.2894C20.6436 7.31789 36.023 -8.06152 54.9944 -8.06152C73.9659 -8.06152 89.3453 7.31789 89.3453 26.2894H88.2225C88.2225 7.938 73.3458 -6.93872 54.9944 -6.93872Z" fill="#344054"/>
<path fill-rule="evenodd" clip-rule="evenodd" d="M54.9945 -4.61547C37.9262 -4.61547 24.0896 9.22111 24.0896 26.2894V52.6403H22.9668V26.2894C22.9668 8.601 37.3061 -5.73828 54.9945 -5.73828C72.6829 -5.73828 87.0222 8.601 87.0222 26.2894H85.8994C85.8994 9.22111 72.0628 -4.61547 54.9945 -4.61547Z" fill="#344054"/>
<path fill-rule="evenodd" clip-rule="evenodd" d="M54.9945 -2.29223C39.2093 -2.29223 26.4128 10.5042 26.4128 26.2895V49.6579H25.29V26.2895C25.29 9.88412 38.5892 -3.41504 54.9945 -3.41504C71.3999 -3.41504 84.699 9.88412 84.699 26.2895H83.5762C83.5762 10.5042 70.7798 -2.29223 54.9945 -2.29223Z" fill="#344054"/>
<path fill-rule="evenodd" clip-rule="evenodd" d="M54.9946 0.030766C40.4924 0.030766 28.7361 11.7871 28.7361 26.2893V47.4472H27.6133V26.2893C27.6133 11.167 39.8723 -1.09204 54.9946 -1.09204C70.1169 -1.09204 82.3759 11.167 82.3759 26.2893H81.2531C81.2531 11.7871 69.4968 0.030766 54.9946 0.030766Z" fill="#344054"/>
<path fill-rule="evenodd" clip-rule="evenodd" d="M54.9946 2.35401C41.7755 2.35401 31.0593 13.0702 31.0593 26.2893V45.7981H29.9365V26.2893C29.9365 12.4501 41.1554 1.2312 54.9946 1.2312C68.8339 1.2312 80.0528 12.4501 80.0528 26.2893H78.93C78.93 13.0702 68.2138 2.35401 54.9946 2.35401Z" fill="#344054"/>
<path fill-rule="evenodd" clip-rule="evenodd" d="M-15.053 -6.93872C3.29833 -6.93872 18.175 7.938 18.175 26.2894V58.3946H19.2979V26.2894C19.2979 7.31789 3.91844 -8.06152 -15.053 -8.06152C-34.0245 -8.06152 -49.4039 7.31789 -49.4039 26.2894H-48.2811C-48.2811 7.938 -33.4044 -6.93872 -15.053 -6.93872Z" fill="#344054"/>
<path fill-rule="evenodd" clip-rule="evenodd" d="M-15.0531 -4.61547C2.01522 -4.61547 15.8518 9.22111 15.8518 26.2894V52.6403H16.9746V26.2894C16.9746 8.601 2.63533 -5.73828 -15.0531 -5.73828C-32.7415 -5.73828 -47.0808 8.601 -47.0808 26.2894H-45.958C-45.958 9.22111 -32.1214 -4.61547 -15.0531 -4.61547Z" fill="#344054"/>
<path fill-rule="evenodd" clip-rule="evenodd" d="M-15.0531 -2.29223C0.7321 -2.29223 13.5286 10.5042 13.5286 26.2895V49.6579H14.6514V26.2895C14.6514 9.88412 1.35221 -3.41504 -15.0531 -3.41504C-31.4585 -3.41504 -44.7576 9.88412 -44.7576 26.2895H-43.6348C-43.6348 10.5042 -30.8384 -2.29223 -15.0531 -2.29223Z" fill="#344054"/>
<path fill-rule="evenodd" clip-rule="evenodd" d="M-15.0532 0.030766C-0.551016 0.030766 11.2053 11.7871 11.2053 26.2893V47.4472H12.3281V26.2893C12.3281 11.167 0.0690928 -1.09204 -15.0532 -1.09204C-30.1755 -1.09204 -42.4345 11.167 -42.4345 26.2893H-41.3117C-41.3117 11.7871 -29.5554 0.030766 -15.0532 0.030766Z" fill="#344054"/>
<path fill-rule="evenodd" clip-rule="evenodd" d="M-15.0532 2.35401C-1.83413 2.35401 8.88208 13.0702 8.88208 26.2893V45.7981H10.0049V26.2893C10.0049 12.4501 -1.21402 1.2312 -15.0532 1.2312C-28.8925 1.2312 -40.1114 12.4501 -40.1114 26.2893H-38.9886C-38.9886 13.0702 -28.2724 2.35401 -15.0532 2.35401Z" fill="#344054"/>
</g>
</svg>
