<svg width="142" height="32" viewBox="0 0 142 32" fill="none" xmlns="http://www.w3.org/2000/svg">
<g clip-path="url(#clip0_371_29407)">
<path fill-rule="evenodd" clip-rule="evenodd" d="M12.9091 29C10.3559 29 7.86008 28.2375 5.73719 26.8091C3.6143 25.3806 1.95971 23.3504 0.982648 20.9749C0.00559346 18.5994 -0.25005 15.9856 0.248051 13.4639C0.74615 10.9421 1.97562 8.6257 3.78099 6.80762C5.58636 4.98954 7.88654 3.75141 10.3907 3.2498C12.8948 2.74819 15.4903 3.00563 17.8492 3.98957C20.2081 4.97351 22.2241 6.63976 23.6426 8.77759C25.0611 10.9154 25.8182 13.4288 25.8182 16C25.8182 19.4478 24.4581 22.7544 22.0372 25.1924C19.6163 27.6304 16.3328 29 12.9091 29ZM10.1376 24.603C8.44795 24.603 6.79628 24.0984 5.39143 23.1531C3.98656 22.2078 2.8916 20.8642 2.24502 19.2922C1.59844 17.7202 1.42926 15.9905 1.75889 14.3216C2.08851 12.6528 2.90214 11.1199 4.09687 9.91678C5.29161 8.71363 6.81379 7.89427 8.47095 7.56233C10.1281 7.23038 11.8458 7.40074 13.4067 8.05189C14.9678 8.70303 16.3019 9.80569 17.2407 11.2205C18.1794 12.6352 18.6803 14.2985 18.6803 16C18.6803 18.2817 17.7803 20.4699 16.1782 22.0832C14.5761 23.6966 12.4032 24.603 10.1376 24.603Z" fill="#1652F0"/>
<path d="M8.16309 15.9993C8.16309 17.2668 8.66307 18.4824 9.55307 19.3787C9.99376 19.8225 10.5169 20.1745 11.0926 20.4146C11.6685 20.6548 12.2856 20.7785 12.9088 20.7785C13.532 20.7785 14.1491 20.6548 14.7249 20.4146C15.3007 20.1745 15.8238 19.8225 16.2645 19.3787C16.7052 18.9349 17.0547 18.4081 17.2932 17.8282C17.5317 17.2484 17.6545 16.6269 17.6545 15.9993C17.6545 15.3718 17.5317 14.7503 17.2932 14.1704C17.0547 13.5906 16.7052 13.0638 16.2645 12.62C15.8238 12.1762 15.3007 11.8241 14.7249 11.584C14.1491 11.3438 13.532 11.2202 12.9088 11.2202C11.6502 11.2202 10.4431 11.7237 9.55307 12.62C8.66307 13.5163 8.16309 14.7318 8.16309 15.9993Z" fill="url(#paint0_linear_371_29407)"/>
<path d="M38.7275 22.2328H41.452V14.0589H41.4876L45.7969 22.2328H46.9008L51.2101 14.0589H51.2457V22.2328H53.9524V9.76709H50.8184L46.3488 18.4575H46.3132L41.8794 9.76709H38.7275V22.2328Z" fill="white"/>
<path d="M57.3203 22.2328H66.7223V19.8465H60.0448V17.0328H66.0991V14.7712H60.0448V12.1534H66.7402V9.76709H57.3203V22.2328Z" fill="white"/>
<path d="M73.181 22.2328H75.9054V12.1712H80.3394V9.76709H68.7471V12.1712H73.181V22.2328Z" fill="white"/>
<path d="M90.2943 22.2328H93.2505L87.6229 9.76709H85.0766L79.4678 22.2328H82.406L83.225 20.3095H89.4754L90.2943 22.2328ZM84.2399 17.9232L86.3409 12.9548H86.3772L88.4782 17.9232H84.2399Z" fill="white"/>
<path d="M100.384 22.5C103.483 22.5 105.943 20.5633 106.279 17.4068H103.664C103.451 18.5551 102.129 20.1137 100.384 20.1137C98.1048 20.1137 96.5557 18.4397 96.5557 16C96.5557 13.5603 98.1048 11.8863 100.384 11.8863C102.479 11.8863 103.451 13.2078 103.718 14.4418L106.279 14.3839C105.943 11.1027 103.393 9.5 100.384 9.5C96.5734 9.5 93.8311 12.2068 93.8311 16C93.8311 19.7932 96.5734 22.5 100.384 22.5Z" fill="white"/>
<path d="M108.79 22.2328H118.192V19.8465H111.514V17.0328H117.568V14.7712H111.514V12.1534H118.21V9.76709H108.79V22.2328Z" fill="white"/>
<path d="M121.018 22.2328H130.223V19.8287H123.742V9.76709H121.018V22.2328Z" fill="white"/>
<path d="M132.794 22.2328H142V19.8287H135.518V9.76709H132.794V22.2328Z" fill="white"/>
</g>
<defs>
<linearGradient id="paint0_linear_371_29407" x1="17.6545" y1="15.9993" x2="8.16309" y2="15.9993" gradientUnits="userSpaceOnUse">
<stop stop-color="#1652F0" stop-opacity="0"/>
<stop offset="1" stop-color="#1652F0"/>
</linearGradient>
<clipPath id="clip0_371_29407">
<rect width="142" height="26" fill="white" transform="translate(0 3)"/>
</clipPath>
</defs>
</svg>
