<svg width="774" height="373" viewBox="0 0 774 373" fill="none" xmlns="http://www.w3.org/2000/svg">
<line opacity="0.6" x1="13.5" y1="373" x2="13.5" y2="1" stroke="url(#paint0_linear_222_78056)"/>
<line opacity="0.6" x1="759.5" y1="373" x2="759.5" y2="1" stroke="url(#paint1_linear_222_78056)"/>
<line opacity="0.3" x1="28" y1="0.5" x2="745" y2="0.5" stroke="#EAECF0"/>
<line opacity="0.6" x1="28" y1="48.5" x2="745" y2="48.5" stroke="#EAECF0"/>
<line x1="28" y1="96.5" x2="745" y2="96.5" stroke="#EAECF0"/>
<line x1="28" y1="276.5" x2="745" y2="276.5" stroke="#EAECF0"/>
<line opacity="0.6" x1="28" y1="324.5" x2="745" y2="324.5" stroke="#EAECF0"/>
<line opacity="0.3" x1="28" y1="372.5" x2="745" y2="372.5" stroke="#EAECF0"/>
<g filter="url(#filter0_dd_222_78056)">
<rect x="12" y="155" width="750" height="64" rx="8" fill="white"/>
<rect x="28" y="181" width="58" height="12" rx="6" fill="#D0D5DD"/>
<rect x="110" y="181" width="195" height="12" rx="6" fill="#EAECF0"/>
<rect x="424" y="181" width="226" height="12" rx="6" fill="#F9FAFB"/>
<rect x="329" y="181" width="71" height="12" rx="6" fill="#F2F4F7"/>
<rect x="674" y="177" width="71" height="20" rx="10" fill="#DFEBF8"/>
<rect x="679" y="182" width="61" height="10" rx="5" fill="#2173F2"/>
<rect x="13" y="156" width="748" height="62" rx="7" stroke="#2173F2" stroke-width="2"/>
</g>
<rect opacity="0.3" x="28" y="19" width="58" height="12" rx="6" fill="#D0D5DD"/>
<rect opacity="0.3" x="110" y="19" width="195" height="12" rx="6" fill="#EAECF0"/>
<rect opacity="0.3" x="424" y="19" width="226" height="12" rx="6" fill="#F9FAFB"/>
<rect opacity="0.3" x="329" y="19" width="71" height="12" rx="6" fill="#F2F4F7"/>
<rect opacity="0.3" x="674" y="15" width="71" height="20" rx="10" fill="#DFEBF8"/>
<rect opacity="0.3" x="679" y="20" width="61" height="10" rx="5" fill="#2173F2"/>
<rect opacity="0.6" x="28" y="67" width="58" height="12" rx="6" fill="#D0D5DD"/>
<rect opacity="0.6" x="110" y="67" width="195" height="12" rx="6" fill="#EAECF0"/>
<rect opacity="0.6" x="424" y="67" width="226" height="12" rx="6" fill="#F9FAFB"/>
<rect opacity="0.6" x="329" y="67" width="71" height="12" rx="6" fill="#F2F4F7"/>
<rect opacity="0.6" x="674" y="63" width="71" height="20" rx="10" fill="#DFEBF8"/>
<rect opacity="0.6" x="679" y="68" width="61" height="10" rx="5" fill="#2173F2"/>
<rect x="28" y="115" width="58" height="12" rx="6" fill="#D0D5DD"/>
<rect x="110" y="115" width="195" height="12" rx="6" fill="#EAECF0"/>
<rect x="424" y="115" width="226" height="12" rx="6" fill="#F9FAFB"/>
<rect x="329" y="115" width="71" height="12" rx="6" fill="#F2F4F7"/>
<rect x="674" y="111" width="71" height="20" rx="10" fill="#DFEBF8"/>
<rect x="679" y="116" width="61" height="10" rx="5" fill="#2173F2"/>
<rect x="28" y="247" width="58" height="12" rx="6" fill="#D0D5DD"/>
<rect x="110" y="247" width="195" height="12" rx="6" fill="#EAECF0"/>
<rect x="424" y="247" width="226" height="12" rx="6" fill="#F9FAFB"/>
<rect x="329" y="247" width="71" height="12" rx="6" fill="#F2F4F7"/>
<rect x="674" y="243" width="71" height="20" rx="10" fill="#DFEBF8"/>
<rect x="679" y="248" width="61" height="10" rx="5" fill="#2173F2"/>
<rect opacity="0.6" x="28" y="295" width="58" height="12" rx="6" fill="#D0D5DD"/>
<rect opacity="0.6" x="110" y="295" width="195" height="12" rx="6" fill="#EAECF0"/>
<rect opacity="0.6" x="424" y="295" width="226" height="12" rx="6" fill="#F9FAFB"/>
<rect opacity="0.6" x="329" y="295" width="71" height="12" rx="6" fill="#F2F4F7"/>
<rect opacity="0.6" x="674" y="291" width="71" height="20" rx="10" fill="#DFEBF8"/>
<rect opacity="0.6" x="679" y="296" width="61" height="10" rx="5" fill="#2173F2"/>
<rect opacity="0.3" x="28" y="343" width="58" height="12" rx="6" fill="#D0D5DD"/>
<rect opacity="0.3" x="110" y="343" width="195" height="12" rx="6" fill="#EAECF0"/>
<rect opacity="0.3" x="424" y="343" width="226" height="12" rx="6" fill="#F9FAFB"/>
<rect opacity="0.3" x="329" y="343" width="71" height="12" rx="6" fill="#F2F4F7"/>
<rect opacity="0.3" x="674" y="339" width="71" height="20" rx="10" fill="#DFEBF8"/>
<rect opacity="0.3" x="679" y="344" width="61" height="10" rx="5" fill="#2173F2"/>
<defs>
<filter id="filter0_dd_222_78056" x="0" y="155" width="774" height="88" filterUnits="userSpaceOnUse" color-interpolation-filters="sRGB">
<feFlood flood-opacity="0" result="BackgroundImageFix"/>
<feColorMatrix in="SourceAlpha" type="matrix" values="0 0 0 0 0 0 0 0 0 0 0 0 0 0 0 0 0 0 127 0" result="hardAlpha"/>
<feMorphology radius="2" operator="erode" in="SourceAlpha" result="effect1_dropShadow_222_78056"/>
<feOffset dy="4"/>
<feGaussianBlur stdDeviation="3"/>
<feColorMatrix type="matrix" values="0 0 0 0 0.0627451 0 0 0 0 0.0941176 0 0 0 0 0.156863 0 0 0 0.03 0"/>
<feBlend mode="normal" in2="BackgroundImageFix" result="effect1_dropShadow_222_78056"/>
<feColorMatrix in="SourceAlpha" type="matrix" values="0 0 0 0 0 0 0 0 0 0 0 0 0 0 0 0 0 0 127 0" result="hardAlpha"/>
<feMorphology radius="4" operator="erode" in="SourceAlpha" result="effect2_dropShadow_222_78056"/>
<feOffset dy="12"/>
<feGaussianBlur stdDeviation="8"/>
<feColorMatrix type="matrix" values="0 0 0 0 0.0627451 0 0 0 0 0.0941176 0 0 0 0 0.156863 0 0 0 0.08 0"/>
<feBlend mode="normal" in2="effect1_dropShadow_222_78056" result="effect2_dropShadow_222_78056"/>
<feBlend mode="normal" in="SourceGraphic" in2="effect2_dropShadow_222_78056" result="shape"/>
</filter>
<linearGradient id="paint0_linear_222_78056" x1="14" y1="373" x2="14" y2="1" gradientUnits="userSpaceOnUse">
<stop stop-color="#EAECF0" stop-opacity="0"/>
<stop offset="0.495261" stop-color="#EAECF0"/>
<stop offset="1" stop-color="#EAECF0" stop-opacity="0"/>
</linearGradient>
<linearGradient id="paint1_linear_222_78056" x1="760" y1="373" x2="760" y2="1" gradientUnits="userSpaceOnUse">
<stop stop-color="#EAECF0" stop-opacity="0"/>
<stop offset="0.495261" stop-color="#EAECF0"/>
<stop offset="1" stop-color="#EAECF0" stop-opacity="0"/>
</linearGradient>
</defs>
</svg>
