<svg width="160" height="120" viewBox="0 0 160 120" fill="none" xmlns="http://www.w3.org/2000/svg">
<circle cx="81.5" cy="52" r="52" fill="#EAECF0"/>
<g filter="url(#filter0_dd_222_76710)">
<path d="M47.2266 79.11L80.4651 63.6107C82.1339 62.8325 82.8559 60.8488 82.0777 59.1799L62.4484 17.0848L49.1563 12.2468L21.9611 24.9281C20.2923 25.7063 19.5703 27.69 20.3485 29.3588L42.7959 77.4974C43.574 79.1662 45.5577 79.8882 47.2266 79.11Z" fill="url(#paint0_linear_222_76710)"/>
<path d="M49.1567 12.2471L62.4489 17.085L53.3838 21.3121L49.1567 12.2471Z" fill="#D0D5DD"/>
</g>
<g filter="url(#filter1_dd_222_76710)">
<path d="M63.1163 67.7831H99.7909C101.632 67.7831 103.125 66.2904 103.125 64.4491V18.0022L93.1228 8H63.1163C61.2749 8 59.7822 9.49271 59.7822 11.3341V64.4491C59.7822 66.2904 61.2749 67.7831 63.1163 67.7831Z" fill="url(#paint1_linear_222_76710)"/>
<path d="M93.1226 8L103.125 18.0022H93.1226V8Z" fill="#D0D5DD"/>
</g>
<g filter="url(#filter2_dd_222_76710)">
<path d="M81.9745 63.5909L115.213 79.0903C116.882 79.8685 118.866 79.1465 119.644 77.4777L139.273 35.3825L134.435 22.0903L107.24 9.40903C105.571 8.63085 103.587 9.35286 102.809 11.0217L80.3619 59.1602C79.5837 60.8291 80.3057 62.8128 81.9745 63.5909Z" fill="url(#paint2_linear_222_76710)"/>
<path d="M134.436 22.0903L139.273 35.3825L130.208 31.1554L134.436 22.0903Z" fill="#D0D5DD"/>
</g>
<circle cx="26.5" cy="11" r="5" fill="#F2F4F7"/>
<circle cx="23.5" cy="109" r="7" fill="#F2F4F7"/>
<circle cx="150.5" cy="35" r="7" fill="#F2F4F7"/>
<circle cx="139.5" cy="8" r="4" fill="#F2F4F7"/>
<g filter="url(#filter3_b_222_76710)">
<rect x="57.5" y="62" width="48" height="48" rx="24" fill="#344054" fill-opacity="0.4"/>
<path d="M89.5 83.5V80.8C89.5 79.1198 89.5 78.2798 89.173 77.638C88.8854 77.0735 88.4265 76.6146 87.862 76.327C87.2202 76 86.3802 76 84.7 76H78.3C76.6198 76 75.7798 76 75.138 76.327C74.5735 76.6146 74.1146 77.0735 73.827 77.638C73.5 78.2798 73.5 79.1198 73.5 80.8V91.2C73.5 92.8802 73.5 93.7202 73.827 94.362C74.1146 94.9265 74.5735 95.3854 75.138 95.673C75.7798 96 76.6198 96 78.3 96H83.5M86 89.0022C86.1762 88.5014 86.524 88.079 86.9817 87.81C87.4395 87.5409 87.9777 87.4426 88.501 87.5324C89.0243 87.6221 89.499 87.8942 89.8409 88.3004C90.1829 88.7066 90.37 89.2207 90.3692 89.7517C90.3692 91.2506 88.1209 92 88.1209 92M88.15 95H88.16" stroke="white" stroke-width="1.5" stroke-linecap="round" stroke-linejoin="round"/>
</g>
<defs>
<filter id="filter0_dd_222_76710" x="-1.06055" y="8.01978" width="104.547" height="112.499" filterUnits="userSpaceOnUse" color-interpolation-filters="sRGB">
<feFlood flood-opacity="0" result="BackgroundImageFix"/>
<feColorMatrix in="SourceAlpha" type="matrix" values="0 0 0 0 0 0 0 0 0 0 0 0 0 0 0 0 0 0 127 0" result="hardAlpha"/>
<feMorphology radius="4" operator="erode" in="SourceAlpha" result="effect1_dropShadow_222_76710"/>
<feOffset dy="8"/>
<feGaussianBlur stdDeviation="4"/>
<feColorMatrix type="matrix" values="0 0 0 0 0.0627451 0 0 0 0 0.0941176 0 0 0 0 0.156863 0 0 0 0.03 0"/>
<feBlend mode="normal" in2="BackgroundImageFix" result="effect1_dropShadow_222_76710"/>
<feColorMatrix in="SourceAlpha" type="matrix" values="0 0 0 0 0 0 0 0 0 0 0 0 0 0 0 0 0 0 127 0" result="hardAlpha"/>
<feMorphology radius="4" operator="erode" in="SourceAlpha" result="effect2_dropShadow_222_76710"/>
<feOffset dy="20"/>
<feGaussianBlur stdDeviation="12"/>
<feColorMatrix type="matrix" values="0 0 0 0 0.0627451 0 0 0 0 0.0941176 0 0 0 0 0.156863 0 0 0 0.08 0"/>
<feBlend mode="normal" in2="effect1_dropShadow_222_76710" result="effect2_dropShadow_222_76710"/>
<feBlend mode="normal" in="SourceGraphic" in2="effect2_dropShadow_222_76710" result="shape"/>
</filter>
<filter id="filter1_dd_222_76710" x="39.7822" y="8" width="83.3428" height="99.7832" filterUnits="userSpaceOnUse" color-interpolation-filters="sRGB">
<feFlood flood-opacity="0" result="BackgroundImageFix"/>
<feColorMatrix in="SourceAlpha" type="matrix" values="0 0 0 0 0 0 0 0 0 0 0 0 0 0 0 0 0 0 127 0" result="hardAlpha"/>
<feMorphology radius="4" operator="erode" in="SourceAlpha" result="effect1_dropShadow_222_76710"/>
<feOffset dy="8"/>
<feGaussianBlur stdDeviation="4"/>
<feColorMatrix type="matrix" values="0 0 0 0 0.0627451 0 0 0 0 0.0941176 0 0 0 0 0.156863 0 0 0 0.03 0"/>
<feBlend mode="normal" in2="BackgroundImageFix" result="effect1_dropShadow_222_76710"/>
<feColorMatrix in="SourceAlpha" type="matrix" values="0 0 0 0 0 0 0 0 0 0 0 0 0 0 0 0 0 0 127 0" result="hardAlpha"/>
<feMorphology radius="4" operator="erode" in="SourceAlpha" result="effect2_dropShadow_222_76710"/>
<feOffset dy="20"/>
<feGaussianBlur stdDeviation="12"/>
<feColorMatrix type="matrix" values="0 0 0 0 0.0627451 0 0 0 0 0.0941176 0 0 0 0 0.156863 0 0 0 0.08 0"/>
<feBlend mode="normal" in2="effect1_dropShadow_222_76710" result="effect2_dropShadow_222_76710"/>
<feBlend mode="normal" in="SourceGraphic" in2="effect2_dropShadow_222_76710" result="shape"/>
</filter>
<filter id="filter2_dd_222_76710" x="58.9526" y="8" width="104.548" height="112.499" filterUnits="userSpaceOnUse" color-interpolation-filters="sRGB">
<feFlood flood-opacity="0" result="BackgroundImageFix"/>
<feColorMatrix in="SourceAlpha" type="matrix" values="0 0 0 0 0 0 0 0 0 0 0 0 0 0 0 0 0 0 127 0" result="hardAlpha"/>
<feMorphology radius="4" operator="erode" in="SourceAlpha" result="effect1_dropShadow_222_76710"/>
<feOffset dy="8"/>
<feGaussianBlur stdDeviation="4"/>
<feColorMatrix type="matrix" values="0 0 0 0 0.0627451 0 0 0 0 0.0941176 0 0 0 0 0.156863 0 0 0 0.03 0"/>
<feBlend mode="normal" in2="BackgroundImageFix" result="effect1_dropShadow_222_76710"/>
<feColorMatrix in="SourceAlpha" type="matrix" values="0 0 0 0 0 0 0 0 0 0 0 0 0 0 0 0 0 0 127 0" result="hardAlpha"/>
<feMorphology radius="4" operator="erode" in="SourceAlpha" result="effect2_dropShadow_222_76710"/>
<feOffset dy="20"/>
<feGaussianBlur stdDeviation="12"/>
<feColorMatrix type="matrix" values="0 0 0 0 0.0627451 0 0 0 0 0.0941176 0 0 0 0 0.156863 0 0 0 0.08 0"/>
<feBlend mode="normal" in2="effect1_dropShadow_222_76710" result="effect2_dropShadow_222_76710"/>
<feBlend mode="normal" in="SourceGraphic" in2="effect2_dropShadow_222_76710" result="shape"/>
</filter>
<filter id="filter3_b_222_76710" x="49.5" y="54" width="64" height="64" filterUnits="userSpaceOnUse" color-interpolation-filters="sRGB">
<feFlood flood-opacity="0" result="BackgroundImageFix"/>
<feGaussianBlur in="BackgroundImageFix" stdDeviation="4"/>
<feComposite in2="SourceAlpha" operator="in" result="effect1_backgroundBlur_222_76710"/>
<feBlend mode="normal" in="SourceGraphic" in2="effect1_backgroundBlur_222_76710" result="shape"/>
</filter>
<linearGradient id="paint0_linear_222_76710" x1="45.2738" y1="79.2398" x2="18.7853" y2="31.4525" gradientUnits="userSpaceOnUse">
<stop stop-color="#E4E7EC"/>
<stop offset="1" stop-color="#F9FAFB"/>
</linearGradient>
<linearGradient id="paint1_linear_222_76710" x1="61.2916" y1="67.0755" x2="57.4807" y2="12.571" gradientUnits="userSpaceOnUse">
<stop stop-color="#E4E7EC"/>
<stop offset="1" stop-color="#F9FAFB"/>
</linearGradient>
<linearGradient id="paint2_linear_222_76710" x1="80.6199" y1="62.1785" x2="100.201" y2="11.17" gradientUnits="userSpaceOnUse">
<stop stop-color="#E4E7EC"/>
<stop offset="1" stop-color="#F9FAFB"/>
</linearGradient>
</defs>
</svg>
