<svg width="1230" height="739" viewBox="0 0 1230 739" fill="none" xmlns="http://www.w3.org/2000/svg">
<path d="M720.606 526.939V739H931.818C1096.5 739 1230 600.901 1230 430.548V212.061H1025V424.122C1025 480.906 980.5 526.939 925.606 526.939H720.606Z" fill="url(#paint0_linear_216_49216)" fill-opacity="0.1"/>
<path d="M509.394 212.061V0H298.182C133.501 0 0 138.099 0 308.452V526.939H205V314.878C205 258.094 249.5 212.061 304.394 212.061H509.394Z" fill="url(#paint1_linear_216_49216)" fill-opacity="0.1"/>
<path d="M205 571.533L205 526.939C524.925 526.939 580.833 6.42637 1025 6.42637V212.061C686.439 212.061 692.652 732.571 205 732.571C204.999 690.508 204.999 625.578 205 571.533Z" fill="url(#paint2_linear_216_49216)" fill-opacity="0.1"/>
<defs>
<linearGradient id="paint0_linear_216_49216" x1="-2.28628e-07" y1="370.206" x2="1230" y2="370.207" gradientUnits="userSpaceOnUse">
<stop stop-color="white"/>
<stop offset="1" stop-color="white" stop-opacity="0"/>
</linearGradient>
<linearGradient id="paint1_linear_216_49216" x1="-2.28628e-07" y1="370.206" x2="1230" y2="370.207" gradientUnits="userSpaceOnUse">
<stop stop-color="white"/>
<stop offset="1" stop-color="white" stop-opacity="0"/>
</linearGradient>
<linearGradient id="paint2_linear_216_49216" x1="-2.28628e-07" y1="370.206" x2="1230" y2="370.207" gradientUnits="userSpaceOnUse">
<stop stop-color="white"/>
<stop offset="1" stop-color="white" stop-opacity="0"/>
</linearGradient>
</defs>
</svg>
