<svg width="750" height="372" viewBox="0 0 750 372" fill="none" xmlns="http://www.w3.org/2000/svg">
<g clip-path="url(#clip0_222_78062)">
<line x1="375" y1="371" x2="375" y2="240" stroke="url(#paint0_linear_222_78062)" stroke-width="2" stroke-linecap="round"/>
<circle cx="375" cy="646" r="353.5" stroke="url(#paint1_linear_222_78062)"/>
<circle cx="375" cy="646" r="416.5" stroke="url(#paint2_linear_222_78062)"/>
<circle cx="375" cy="646" r="480.5" stroke="url(#paint3_linear_222_78062)"/>
<circle cx="375" cy="646" r="543.5" stroke="url(#paint4_linear_222_78062)"/>
<circle cx="375" cy="646" r="606.5" stroke="url(#paint5_linear_222_78062)"/>
<line x1="375" y1="1" x2="375" y2="245" stroke="url(#paint6_linear_222_78062)" stroke-width="2" stroke-linecap="round"/>
<g filter="url(#filter0_ddd_222_78062)">
<circle cx="375" cy="115" r="4" fill="#86B5EF"/>
</g>
<g filter="url(#filter1_ddd_222_78062)">
<circle cx="375" cy="178" r="4" fill="#2173F2"/>
</g>
<g opacity="0.6">
<rect x="245" y="102" width="110" height="25" rx="12.5" fill="#2173F2"/>
<path d="M259.034 119L262.632 109.662H260.364L257.788 116.844L255.198 109.662H252.93L256.542 119H259.034ZM267.4 119V109.662H265.664L262.724 112.616L263.858 113.806L265.398 112.224V119H267.4Z" fill="white"/>
<path d="M279.99 119V109.662H278.758L276.252 112.224L277.078 113.078L278.59 111.496V119H279.99ZM287.289 119V116.76H288.577V115.528H287.289V109.662H285.371L281.451 115.612V116.76H285.889V119H287.289ZM285.889 115.528H282.837L285.889 110.936V115.528ZM289.968 119.28L293.286 109.382H292.32L289.002 119.28H289.968ZM293.925 114.338C293.925 116.648 294.989 119.168 297.579 119.168C300.169 119.168 301.233 116.648 301.233 114.338C301.233 112.028 300.169 109.522 297.579 109.522C294.989 109.522 293.925 112.028 293.925 114.338ZM299.805 114.338C299.805 116.158 299.231 117.922 297.579 117.922C295.927 117.922 295.353 116.158 295.353 114.338C295.353 112.518 295.927 110.768 297.579 110.768C299.231 110.768 299.805 112.518 299.805 114.338ZM302.245 117.642C302.847 118.482 304.051 119.168 305.675 119.168C307.789 119.168 309.091 118.034 309.091 116.466C309.091 114.996 307.803 114.268 306.921 114.184C307.845 114.016 308.951 113.33 308.951 112.028C308.951 110.46 307.579 109.522 305.675 109.522C304.177 109.522 303.071 110.152 302.371 110.978L303.113 111.846C303.799 111.146 304.569 110.768 305.549 110.768C306.655 110.768 307.551 111.272 307.551 112.224C307.551 113.19 306.627 113.61 305.493 113.61C305.129 113.61 304.639 113.61 304.485 113.596V114.87C304.625 114.856 305.115 114.856 305.493 114.856C306.851 114.856 307.691 115.29 307.691 116.326C307.691 117.306 306.921 117.922 305.633 117.922C304.583 117.922 303.617 117.446 303.029 116.732L302.245 117.642ZM310.763 119.28L314.081 109.382H313.115L309.797 119.28H310.763ZM321.384 119V117.768H317.03C319.592 115.794 321.342 114.156 321.342 112.336C321.342 110.474 319.76 109.522 318.08 109.522C316.778 109.522 315.504 110.04 314.734 111.006L315.56 111.916C316.134 111.23 316.988 110.768 318.094 110.768C319.004 110.768 319.914 111.244 319.914 112.336C319.914 113.806 318.304 115.206 314.804 117.894V119H321.384ZM322.992 114.338C322.992 116.648 324.056 119.168 326.646 119.168C329.236 119.168 330.3 116.648 330.3 114.338C330.3 112.028 329.236 109.522 326.646 109.522C324.056 109.522 322.992 112.028 322.992 114.338ZM328.872 114.338C328.872 116.158 328.298 117.922 326.646 117.922C324.994 117.922 324.42 116.158 324.42 114.338C324.42 112.518 324.994 110.768 326.646 110.768C328.298 110.768 328.872 112.518 328.872 114.338ZM338.255 119V117.768H333.901C336.463 115.794 338.213 114.156 338.213 112.336C338.213 110.474 336.631 109.522 334.951 109.522C333.649 109.522 332.375 110.04 331.605 111.006L332.431 111.916C333.005 111.23 333.859 110.768 334.965 110.768C335.875 110.768 336.785 111.244 336.785 112.336C336.785 113.806 335.175 115.206 331.675 117.894V119H338.255ZM346.527 119V117.768H342.173C344.735 115.794 346.485 114.156 346.485 112.336C346.485 110.474 344.903 109.522 343.223 109.522C341.921 109.522 340.647 110.04 339.877 111.006L340.703 111.916C341.277 111.23 342.131 110.768 343.237 110.768C344.147 110.768 345.057 111.244 345.057 112.336C345.057 113.806 343.447 115.206 339.947 117.894V119H346.527Z" fill="white" fill-opacity="0.6"/>
</g>
<rect x="395" y="165" width="110" height="25" rx="12.5" fill="#2173F2"/>
<path d="M409.034 182L412.632 172.662H410.364L407.788 179.844L405.198 172.662H402.93L406.542 182H409.034ZM420.256 182V180.25H416.364C418.87 178.486 420.186 177.1 420.186 175.504C420.186 173.642 418.604 172.522 416.616 172.522C415.314 172.522 413.928 172.998 413.018 174.048L414.152 175.364C414.782 174.706 415.594 174.286 416.644 174.286C417.428 174.286 418.17 174.692 418.17 175.504C418.17 176.652 417.05 177.618 413.228 180.432V182H420.256Z" fill="white"/>
<path d="M426.644 177.338C426.644 179.648 427.708 182.168 430.298 182.168C432.888 182.168 433.952 179.648 433.952 177.338C433.952 175.028 432.888 172.522 430.298 172.522C427.708 172.522 426.644 175.028 426.644 177.338ZM432.524 177.338C432.524 179.158 431.95 180.922 430.298 180.922C428.646 180.922 428.072 179.158 428.072 177.338C428.072 175.518 428.646 173.768 430.298 173.768C431.95 173.768 432.524 175.518 432.524 177.338ZM438.59 182V172.662H437.358L434.852 175.224L435.678 176.078L437.19 174.496V182H438.59ZM440.597 182.28L443.915 172.382H442.949L439.631 182.28H440.597ZM444.554 177.338C444.554 179.648 445.618 182.168 448.208 182.168C450.798 182.168 451.862 179.648 451.862 177.338C451.862 175.028 450.798 172.522 448.208 172.522C445.618 172.522 444.554 175.028 444.554 177.338ZM450.434 177.338C450.434 179.158 449.86 180.922 448.208 180.922C446.556 180.922 445.982 179.158 445.982 177.338C445.982 175.518 446.556 173.768 448.208 173.768C449.86 173.768 450.434 175.518 450.434 177.338ZM453.364 180.698C454.092 181.608 455.156 182.168 456.752 182.168C458.726 182.168 460.182 180.964 460.182 179.046C460.182 177.128 458.768 176.05 457.2 176.05C456.29 176.05 455.506 176.428 455.058 176.876V173.894H459.566V172.662H453.658V177.786L454.666 178.108C455.282 177.52 455.954 177.268 456.766 177.268C457.97 177.268 458.768 177.982 458.768 179.102C458.768 180.124 457.956 180.922 456.738 180.922C455.646 180.922 454.806 180.502 454.19 179.746L453.364 180.698ZM461.802 182.28L465.12 172.382H464.154L460.836 182.28H461.802ZM472.423 182V180.768H468.069C470.631 178.794 472.381 177.156 472.381 175.336C472.381 173.474 470.799 172.522 469.119 172.522C467.817 172.522 466.543 173.04 465.773 174.006L466.599 174.916C467.173 174.23 468.027 173.768 469.133 173.768C470.043 173.768 470.953 174.244 470.953 175.336C470.953 176.806 469.343 178.206 465.843 180.894V182H472.423ZM474.031 177.338C474.031 179.648 475.095 182.168 477.685 182.168C480.275 182.168 481.339 179.648 481.339 177.338C481.339 175.028 480.275 172.522 477.685 172.522C475.095 172.522 474.031 175.028 474.031 177.338ZM479.911 177.338C479.911 179.158 479.337 180.922 477.685 180.922C476.033 180.922 475.459 179.158 475.459 177.338C475.459 175.518 476.033 173.768 477.685 173.768C479.337 173.768 479.911 175.518 479.911 177.338ZM489.294 182V180.768H484.94C487.502 178.794 489.252 177.156 489.252 175.336C489.252 173.474 487.67 172.522 485.99 172.522C484.688 172.522 483.414 173.04 482.644 174.006L483.47 174.916C484.044 174.23 484.898 173.768 486.004 173.768C486.914 173.768 487.824 174.244 487.824 175.336C487.824 176.806 486.214 178.206 482.714 180.894V182H489.294ZM497.566 182V180.768H493.212C495.774 178.794 497.524 177.156 497.524 175.336C497.524 173.474 495.942 172.522 494.262 172.522C492.96 172.522 491.686 173.04 490.916 174.006L491.742 174.916C492.316 174.23 493.17 173.768 494.276 173.768C495.186 173.768 496.096 174.244 496.096 175.336C496.096 176.806 494.486 178.206 490.986 180.894V182H497.566Z" fill="white" fill-opacity="0.6"/>
</g>
<defs>
<filter id="filter0_ddd_222_78062" x="362" y="102" width="26" height="26" filterUnits="userSpaceOnUse" color-interpolation-filters="sRGB">
<feFlood flood-opacity="0" result="BackgroundImageFix"/>
<feColorMatrix in="SourceAlpha" type="matrix" values="0 0 0 0 0 0 0 0 0 0 0 0 0 0 0 0 0 0 127 0" result="hardAlpha"/>
<feMorphology radius="3" operator="dilate" in="SourceAlpha" result="effect1_dropShadow_222_78062"/>
<feOffset/>
<feComposite in2="hardAlpha" operator="out"/>
<feColorMatrix type="matrix" values="0 0 0 0 0.52549 0 0 0 0 0.709804 0 0 0 0 0.937255 0 0 0 0.6 0"/>
<feBlend mode="normal" in2="BackgroundImageFix" result="effect1_dropShadow_222_78062"/>
<feColorMatrix in="SourceAlpha" type="matrix" values="0 0 0 0 0 0 0 0 0 0 0 0 0 0 0 0 0 0 127 0" result="hardAlpha"/>
<feMorphology radius="6" operator="dilate" in="SourceAlpha" result="effect2_dropShadow_222_78062"/>
<feOffset/>
<feComposite in2="hardAlpha" operator="out"/>
<feColorMatrix type="matrix" values="0 0 0 0 0.52549 0 0 0 0 0.709804 0 0 0 0 0.937255 0 0 0 0.4 0"/>
<feBlend mode="normal" in2="effect1_dropShadow_222_78062" result="effect2_dropShadow_222_78062"/>
<feColorMatrix in="SourceAlpha" type="matrix" values="0 0 0 0 0 0 0 0 0 0 0 0 0 0 0 0 0 0 127 0" result="hardAlpha"/>
<feMorphology radius="9" operator="dilate" in="SourceAlpha" result="effect3_dropShadow_222_78062"/>
<feOffset/>
<feComposite in2="hardAlpha" operator="out"/>
<feColorMatrix type="matrix" values="0 0 0 0 0.52549 0 0 0 0 0.709804 0 0 0 0 0.937255 0 0 0 0.1 0"/>
<feBlend mode="normal" in2="effect2_dropShadow_222_78062" result="effect3_dropShadow_222_78062"/>
<feBlend mode="normal" in="SourceGraphic" in2="effect3_dropShadow_222_78062" result="shape"/>
</filter>
<filter id="filter1_ddd_222_78062" x="362" y="165" width="26" height="26" filterUnits="userSpaceOnUse" color-interpolation-filters="sRGB">
<feFlood flood-opacity="0" result="BackgroundImageFix"/>
<feColorMatrix in="SourceAlpha" type="matrix" values="0 0 0 0 0 0 0 0 0 0 0 0 0 0 0 0 0 0 127 0" result="hardAlpha"/>
<feMorphology radius="3" operator="dilate" in="SourceAlpha" result="effect1_dropShadow_222_78062"/>
<feOffset/>
<feComposite in2="hardAlpha" operator="out"/>
<feColorMatrix type="matrix" values="0 0 0 0 0.129412 0 0 0 0 0.45098 0 0 0 0 0.94902 0 0 0 0.6 0"/>
<feBlend mode="normal" in2="BackgroundImageFix" result="effect1_dropShadow_222_78062"/>
<feColorMatrix in="SourceAlpha" type="matrix" values="0 0 0 0 0 0 0 0 0 0 0 0 0 0 0 0 0 0 127 0" result="hardAlpha"/>
<feMorphology radius="6" operator="dilate" in="SourceAlpha" result="effect2_dropShadow_222_78062"/>
<feOffset/>
<feComposite in2="hardAlpha" operator="out"/>
<feColorMatrix type="matrix" values="0 0 0 0 0.129412 0 0 0 0 0.45098 0 0 0 0 0.94902 0 0 0 0.4 0"/>
<feBlend mode="normal" in2="effect1_dropShadow_222_78062" result="effect2_dropShadow_222_78062"/>
<feColorMatrix in="SourceAlpha" type="matrix" values="0 0 0 0 0 0 0 0 0 0 0 0 0 0 0 0 0 0 127 0" result="hardAlpha"/>
<feMorphology radius="9" operator="dilate" in="SourceAlpha" result="effect3_dropShadow_222_78062"/>
<feOffset/>
<feComposite in2="hardAlpha" operator="out"/>
<feColorMatrix type="matrix" values="0 0 0 0 0.129412 0 0 0 0 0.45098 0 0 0 0 0.94902 0 0 0 0.1 0"/>
<feBlend mode="normal" in2="effect2_dropShadow_222_78062" result="effect3_dropShadow_222_78062"/>
<feBlend mode="normal" in="SourceGraphic" in2="effect3_dropShadow_222_78062" result="shape"/>
</filter>
<linearGradient id="paint0_linear_222_78062" x1="376" y1="372" x2="376" y2="232.237" gradientUnits="userSpaceOnUse">
<stop stop-color="#98A2B4" stop-opacity="0"/>
<stop offset="0.658236" stop-color="#98A2B4" stop-opacity="0.4"/>
</linearGradient>
<linearGradient id="paint1_linear_222_78062" x1="375" y1="292" x2="375" y2="376.5" gradientUnits="userSpaceOnUse">
<stop stop-color="#98A2B4" stop-opacity="0.2"/>
<stop offset="1" stop-color="#98A2B4" stop-opacity="0"/>
</linearGradient>
<linearGradient id="paint2_linear_222_78062" x1="375" y1="229" x2="375" y2="328.538" gradientUnits="userSpaceOnUse">
<stop stop-color="#98A2B4" stop-opacity="0.2"/>
<stop offset="1" stop-color="#98A2B4" stop-opacity="0"/>
</linearGradient>
<linearGradient id="paint3_linear_222_78062" x1="375" y1="165" x2="375" y2="279.815" gradientUnits="userSpaceOnUse">
<stop stop-color="#98A2B4" stop-opacity="0.2"/>
<stop offset="1" stop-color="#98A2B4" stop-opacity="0"/>
</linearGradient>
<linearGradient id="paint4_linear_222_78062" x1="375" y1="102" x2="375" y2="231.853" gradientUnits="userSpaceOnUse">
<stop stop-color="#98A2B4" stop-opacity="0.2"/>
<stop offset="1" stop-color="#98A2B4" stop-opacity="0"/>
</linearGradient>
<linearGradient id="paint5_linear_222_78062" x1="375" y1="39" x2="375" y2="183.891" gradientUnits="userSpaceOnUse">
<stop stop-color="#98A2B4" stop-opacity="0.2"/>
<stop offset="1" stop-color="#98A2B4" stop-opacity="0"/>
</linearGradient>
<linearGradient id="paint6_linear_222_78062" x1="374" y1="0" x2="374" y2="246" gradientUnits="userSpaceOnUse">
<stop stop-color="#2173F2" stop-opacity="0"/>
<stop offset="0.658236" stop-color="#2173F2"/>
</linearGradient>
<clipPath id="clip0_222_78062">
<rect width="750" height="372" fill="white"/>
</clipPath>
</defs>
</svg>
