<svg width="54" height="54" viewBox="0 0 54 54" fill="none" xmlns="http://www.w3.org/2000/svg">
<g filter="url(#filter0_ddd_222_78088)">
<rect x="3" y="3" width="48" height="48" rx="8" fill="#2173F2"/>
<path d="M37.5 41.5H18.5C17.6716 41.5 17 40.8284 17 40V28H39V40C39 40.8284 38.3284 41.5 37.5 41.5Z" fill="white" fill-opacity="0.1"/>
<line x1="8" y1="27.5" x2="48" y2="27.5" stroke="url(#paint0_linear_222_78088)"/>
<path d="M16.5 28V40C16.5 41.1046 17.3954 42 18.5 42H37.5C38.6046 42 39.5 41.1046 39.5 40V28" stroke="white" stroke-opacity="0.3"/>
<g filter="url(#filter1_di_222_78088)">
<mask id="path-5-outside-1_222_78088" maskUnits="userSpaceOnUse" x="16" y="12" width="24" height="16" fill="black">
<rect fill="white" x="16" y="12" width="24" height="16"/>
<path d="M33.265 13.6125L38.4404 18.9851C38.7994 19.3578 39 19.8552 39 20.3726V27H17V15C17 13.8954 17.8954 13 19 13H31.8246C32.368 13 32.888 13.2211 33.265 13.6125Z"/>
</mask>
<path d="M33.265 13.6125L38.4404 18.9851C38.7994 19.3578 39 19.8552 39 20.3726V27H17V15C17 13.8954 17.8954 13 19 13H31.8246C32.368 13 32.888 13.2211 33.265 13.6125Z" fill="#2173F2" shape-rendering="crispEdges"/>
<path d="M38.4404 18.9851L37.7202 19.6789L37.7202 19.6789L38.4404 18.9851ZM33.265 13.6125L33.9852 12.9187L33.9852 12.9187L33.265 13.6125ZM17 27H16V28H17V27ZM39 27V28H40V27H39ZM39.1606 18.2914L33.9852 12.9187L32.5448 14.3062L37.7202 19.6789L39.1606 18.2914ZM31.8246 12H19V14H31.8246V12ZM16 15V27H18V15H16ZM40 27V20.3726H38V27H40ZM17 28H39V26H17V28ZM33.9852 12.9187C33.4197 12.3317 32.6397 12 31.8246 12V14C32.0963 14 32.3563 14.1106 32.5448 14.3062L33.9852 12.9187ZM37.7202 19.6789C37.8997 19.8652 38 20.1139 38 20.3726H40C40 19.5964 39.6991 18.8504 39.1606 18.2914L37.7202 19.6789ZM19 12C17.3431 12 16 13.3431 16 15H18C18 14.4477 18.4477 14 19 14V12Z" fill="url(#paint1_angular_222_78088)" mask="url(#path-5-outside-1_222_78088)"/>
</g>
</g>
<defs>
<filter id="filter0_ddd_222_78088" x="0" y="0" width="54" height="54" filterUnits="userSpaceOnUse" color-interpolation-filters="sRGB">
<feFlood flood-opacity="0" result="BackgroundImageFix"/>
<feColorMatrix in="SourceAlpha" type="matrix" values="0 0 0 0 0 0 0 0 0 0 0 0 0 0 0 0 0 0 127 0" result="hardAlpha"/>
<feMorphology radius="3" operator="dilate" in="SourceAlpha" result="effect1_dropShadow_222_78088"/>
<feOffset/>
<feColorMatrix type="matrix" values="0 0 0 0 0.94902 0 0 0 0 0.956863 0 0 0 0 0.968627 0 0 0 1 0"/>
<feBlend mode="normal" in2="BackgroundImageFix" result="effect1_dropShadow_222_78088"/>
<feColorMatrix in="SourceAlpha" type="matrix" values="0 0 0 0 0 0 0 0 0 0 0 0 0 0 0 0 0 0 127 0" result="hardAlpha"/>
<feOffset dy="0.75"/>
<feGaussianBlur stdDeviation="0.75"/>
<feColorMatrix type="matrix" values="0 0 0 0 0.0627451 0 0 0 0 0.0941176 0 0 0 0 0.156863 0 0 0 0.06 0"/>
<feBlend mode="normal" in2="effect1_dropShadow_222_78088" result="effect2_dropShadow_222_78088"/>
<feColorMatrix in="SourceAlpha" type="matrix" values="0 0 0 0 0 0 0 0 0 0 0 0 0 0 0 0 0 0 127 0" result="hardAlpha"/>
<feOffset dy="0.75"/>
<feGaussianBlur stdDeviation="1.125"/>
<feColorMatrix type="matrix" values="0 0 0 0 0.0627451 0 0 0 0 0.0941176 0 0 0 0 0.156863 0 0 0 0.1 0"/>
<feBlend mode="normal" in2="effect2_dropShadow_222_78088" result="effect3_dropShadow_222_78088"/>
<feBlend mode="normal" in="SourceGraphic" in2="effect3_dropShadow_222_78088" result="shape"/>
</filter>
<filter id="filter1_di_222_78088" x="13" y="11" width="30" height="22" filterUnits="userSpaceOnUse" color-interpolation-filters="sRGB">
<feFlood flood-opacity="0" result="BackgroundImageFix"/>
<feColorMatrix in="SourceAlpha" type="matrix" values="0 0 0 0 0 0 0 0 0 0 0 0 0 0 0 0 0 0 127 0" result="hardAlpha"/>
<feOffset dy="2"/>
<feGaussianBlur stdDeviation="1.5"/>
<feComposite in2="hardAlpha" operator="out"/>
<feColorMatrix type="matrix" values="0 0 0 0 0.0627451 0 0 0 0 0.0941176 0 0 0 0 0.156863 0 0 0 0.2 0"/>
<feBlend mode="normal" in2="BackgroundImageFix" result="effect1_dropShadow_222_78088"/>
<feBlend mode="normal" in="SourceGraphic" in2="effect1_dropShadow_222_78088" result="shape"/>
<feColorMatrix in="SourceAlpha" type="matrix" values="0 0 0 0 0 0 0 0 0 0 0 0 0 0 0 0 0 0 127 0" result="hardAlpha"/>
<feOffset dy="1"/>
<feGaussianBlur stdDeviation="2"/>
<feComposite in2="hardAlpha" operator="arithmetic" k2="-1" k3="1"/>
<feColorMatrix type="matrix" values="0 0 0 0 0 0 0 0 0 0 0 0 0 0 0 0 0 0 0.25 0"/>
<feBlend mode="normal" in2="shape" result="effect2_innerShadow_222_78088"/>
</filter>
<linearGradient id="paint0_linear_222_78088" x1="8" y1="28" x2="48" y2="28" gradientUnits="userSpaceOnUse">
<stop stop-color="white" stop-opacity="0"/>
<stop offset="0.187748" stop-color="white"/>
<stop offset="0.809688" stop-color="white"/>
<stop offset="1" stop-color="white" stop-opacity="0"/>
</linearGradient>
<radialGradient id="paint1_angular_222_78088" cx="0" cy="0" r="1" gradientUnits="userSpaceOnUse" gradientTransform="translate(28 20.25) rotate(90) scale(7.25 11)">
<stop stop-color="white"/>
<stop offset="0.239634" stop-color="white" stop-opacity="0.6"/>
<stop offset="0.76404" stop-color="white" stop-opacity="0.6"/>
</radialGradient>
</defs>
</svg>
