<svg width="1920" height="1080" viewBox="0 0 1920 1080" fill="none" xmlns="http://www.w3.org/2000/svg">
<g clip-path="url(#clip0_203_18564)">
<g opacity="0.6">
<path opacity="0.2" d="M-229.098 492.797L2459.75 1785.54" stroke="white" stroke-width="0.5" stroke-miterlimit="10"/>
<path opacity="0.96" d="M-205.222 572.065L2495.19 1659.35" stroke="white" stroke-width="0.5" stroke-miterlimit="10"/>
<path opacity="0.91" d="M-181.306 651.237L2530.67 1533.06" stroke="white" stroke-width="0.5" stroke-miterlimit="10"/>
<path opacity="0.87" d="M-157.412 730.502L2566.13 1406.87" stroke="white" stroke-width="0.5" stroke-miterlimit="10"/>
<path opacity="0.83" d="M-133.527 809.772L2601.67 1280.7" stroke="white" stroke-width="0.5" stroke-miterlimit="10"/>
<path opacity="0.79" d="M-109.637 889.039L2637.15 1154.41" stroke="white" stroke-width="0.5" stroke-miterlimit="10"/>
<path opacity="0.74" d="M-85.7245 968.212L2672.6 1028.22" stroke="white" stroke-width="0.5" stroke-miterlimit="10"/>
<path opacity="0.7" d="M-61.8336 1047.48L2708.15 902.06" stroke="white" stroke-width="0.5" stroke-miterlimit="10"/>
<path opacity="0.66" d="M-37.9496 1126.75L2743.6 775.866" stroke="white" stroke-width="0.5" stroke-miterlimit="10"/>
<path opacity="0.61" d="M-14.0587 1206.02L2779.08 649.581" stroke="white" stroke-width="0.5" stroke-miterlimit="10"/>
<path opacity="0.57" d="M9.948 1285.21L2814.52 523.388" stroke="white" stroke-width="0.5" stroke-miterlimit="10"/>
<path opacity="0.53" d="M33.8317 1364.48L2850.07 397.223" stroke="white" stroke-width="0.5" stroke-miterlimit="10"/>
<path opacity="0.49" d="M57.7163 1443.75L2885.54 270.934" stroke="white" stroke-width="0.5" stroke-miterlimit="10"/>
<path opacity="0.44" d="M81.6072 1523.02L2920.99 144.744" stroke="white" stroke-width="0.5" stroke-miterlimit="10"/>
<path opacity="0.4" d="M105.491 1602.28L2956.54 18.5767" stroke="white" stroke-width="0.5" stroke-miterlimit="10"/>
<path opacity="0.36" d="M129.411 1681.46L2991.99 -107.614" stroke="white" stroke-width="0.5" stroke-miterlimit="10"/>
<path opacity="0.31" d="M153.294 1760.72L3027.47 -233.904" stroke="white" stroke-width="0.5" stroke-miterlimit="10"/>
<path opacity="0.27" d="M177.185 1839.99L3062.92 -360.093" stroke="white" stroke-width="0.5" stroke-miterlimit="10"/>
<path opacity="0.23" d="M201.069 1919.26L3098.46 -486.26" stroke="white" stroke-width="0.5" stroke-miterlimit="10"/>
<path opacity="0.19" d="M224.988 1998.43L3133.94 -612.546" stroke="white" stroke-width="0.5" stroke-miterlimit="10"/>
<path opacity="0.14" d="M248.979 2077.72L3169.4 -738.74" stroke="white" stroke-width="0.5" stroke-miterlimit="10"/>
<path opacity="0.1" d="M272.87 2156.99L3204.95 -864.903" stroke="white" stroke-width="0.5" stroke-miterlimit="10"/>
</g>
</g>
<defs>
<clipPath id="clip0_203_18564">
<rect width="3683.1" height="2965.11" fill="white" transform="translate(-614 1919.25) rotate(-74.9188)"/>
</clipPath>
</defs>
</svg>
