<svg width="70" height="70" viewBox="0 0 70 70" fill="none" xmlns="http://www.w3.org/2000/svg">
<rect x="1.5" y="1.5" width="67" height="67" rx="33.5" fill="#2173F2"/>
<mask id="mask0_1358_34286" style="mask-type:alpha" maskUnits="userSpaceOnUse" x="15" y="15" width="40" height="40">
<path d="M55 35C55 46.0457 46.0457 55 35 55C23.9543 55 15 46.0457 15 35C15 23.9543 23.9543 15 35 15C46.0457 15 55 23.9543 55 35Z" fill="#D9D9D9"/>
</mask>
<g mask="url(#mask0_1358_34286)">
<path fill-rule="evenodd" clip-rule="evenodd" d="M69.9944 7.56128C51.6431 7.56128 36.7664 22.438 36.7664 40.7894V72.8946H35.6436V40.7894C35.6436 21.8179 51.023 6.43848 69.9944 6.43848C88.9659 6.43848 104.345 21.8179 104.345 40.7894H103.223C103.223 22.438 88.3458 7.56128 69.9944 7.56128Z" fill="white"/>
<path fill-rule="evenodd" clip-rule="evenodd" d="M69.9945 9.88453C52.9262 9.88453 39.0896 23.7211 39.0896 40.7894V67.1403H37.9668V40.7894C37.9668 23.101 52.3061 8.76172 69.9945 8.76172C87.6829 8.76172 102.022 23.101 102.022 40.7894H100.899C100.899 23.7211 87.0628 9.88453 69.9945 9.88453Z" fill="white"/>
<path fill-rule="evenodd" clip-rule="evenodd" d="M69.9945 12.2078C54.2093 12.2078 41.4128 25.0042 41.4128 40.7895V64.1579H40.29V40.7895C40.29 24.3841 53.5892 11.085 69.9945 11.085C86.3999 11.085 99.699 24.3841 99.699 40.7895H98.5762C98.5762 25.0042 85.7798 12.2078 69.9945 12.2078Z" fill="white"/>
<path fill-rule="evenodd" clip-rule="evenodd" d="M69.9946 14.531C55.4924 14.531 43.7361 26.2873 43.7361 40.7895V61.9474H42.6133V40.7895C42.6133 25.6672 54.8723 13.4082 69.9946 13.4082C85.1169 13.4082 97.3759 25.6672 97.3759 40.7895H96.2531C96.2531 26.2873 84.4968 14.531 69.9946 14.531Z" fill="white"/>
<path fill-rule="evenodd" clip-rule="evenodd" d="M69.9947 16.8543C56.7755 16.8543 46.0593 27.5705 46.0593 40.7896V60.2983H44.9365V40.7896C44.9365 26.9504 56.1554 15.7314 69.9947 15.7314C83.8339 15.7314 95.0528 26.9504 95.0528 40.7896H93.93C93.93 27.5705 83.2138 16.8543 69.9947 16.8543Z" fill="white"/>
<path fill-rule="evenodd" clip-rule="evenodd" d="M-0.0530259 7.56128C18.2983 7.56128 33.175 22.438 33.175 40.7894V72.8946H34.2979V40.7894C34.2979 21.8179 18.9184 6.43848 -0.0530259 6.43848C-19.0245 6.43848 -34.4039 21.8179 -34.4039 40.7894H-33.2811C-33.2811 22.438 -18.4044 7.56128 -0.0530259 7.56128Z" fill="white"/>
<path fill-rule="evenodd" clip-rule="evenodd" d="M-0.053076 9.88453C17.0152 9.88453 30.8518 23.7211 30.8518 40.7894V67.1403H31.9746V40.7894C31.9746 23.101 17.6353 8.76172 -0.053076 8.76172C-17.7415 8.76172 -32.0808 23.101 -32.0808 40.7894H-30.958C-30.958 23.7211 -17.1214 9.88453 -0.053076 9.88453Z" fill="white"/>
<path fill-rule="evenodd" clip-rule="evenodd" d="M-0.0531351 12.2078C15.7321 12.2078 28.5286 25.0042 28.5286 40.7895V64.1579H29.6514V40.7895C29.6514 24.3841 16.3522 11.085 -0.0531351 11.085C-16.4585 11.085 -29.7576 24.3841 -29.7576 40.7895H-28.6348C-28.6348 25.0042 -15.8384 12.2078 -0.0531351 12.2078Z" fill="white"/>
<path fill-rule="evenodd" clip-rule="evenodd" d="M-0.0531886 14.531C14.449 14.531 26.2053 26.2873 26.2053 40.7895V61.9474H27.3281V40.7895C27.3281 25.6672 15.0691 13.4082 -0.0531886 13.4082C-15.1755 13.4082 -27.4345 25.6672 -27.4345 40.7895H-26.3117C-26.3117 26.2873 -14.5554 14.531 -0.0531886 14.531Z" fill="white"/>
<path fill-rule="evenodd" clip-rule="evenodd" d="M-0.0532443 16.8543C13.1659 16.8543 23.8821 27.5705 23.8821 40.7896V60.2983H25.0049V40.7896C25.0049 26.9504 13.786 15.7314 -0.0532443 15.7314C-13.8925 15.7314 -25.1114 26.9504 -25.1114 40.7896H-23.9886C-23.9886 27.5705 -13.2724 16.8543 -0.0532443 16.8543Z" fill="white"/>
</g>
<rect x="1.5" y="1.5" width="67" height="67" rx="33.5" stroke="white" stroke-width="3"/>
</svg>
